<svg width="1704" height="447" viewBox="0 0 1704 447" fill="none" xmlns="http://www.w3.org/2000/svg">
<g clip-path="url(#clip0_1208_236)">
<path d="M189.25 148.727C193.379 148.727 196.727 145.379 196.727 141.25C196.727 137.121 193.379 133.773 189.25 133.773C185.121 133.773 181.773 137.121 181.773 141.25C181.773 145.379 185.121 148.727 189.25 148.727Z" fill="#8062D6"/>
<path d="M353.75 148.727C357.879 148.727 361.227 145.379 361.227 141.25C361.227 137.121 357.879 133.773 353.75 133.773C349.621 133.773 346.273 137.121 346.273 141.25C346.273 145.379 349.621 148.727 353.75 148.727Z" fill="#8062D6"/>
<path d="M189.25 313.227C193.379 313.227 196.727 309.879 196.727 305.75C196.727 301.621 193.379 298.273 189.25 298.273C185.121 298.273 181.773 301.621 181.773 305.75C181.773 309.879 185.121 313.227 189.25 313.227Z" fill="#8062D6"/>
<path d="M353.75 313.227C357.879 313.227 361.227 309.879 361.227 305.75C361.227 301.621 357.879 298.273 353.75 298.273C349.621 298.273 346.273 301.621 346.273 305.75C346.273 309.879 349.621 313.227 353.75 313.227Z" fill="#8062D6"/>
<path d="M428.523 208.545C432.658 208.545 436 205.196 436 201.068C436 196.941 432.658 193.591 428.523 193.591H391.136V163.682H428.523C432.658 163.682 436 160.333 436 156.205C436 152.078 432.658 148.728 428.523 148.728H391.136V141.25C391.136 120.635 374.365 103.864 353.75 103.864H346.273V66.477C346.273 62.3498 342.93 59 338.795 59C334.66 59 331.318 62.3498 331.318 66.477V103.864H301.409V66.477C301.409 62.3498 298.067 59 293.932 59C289.797 59 286.455 62.3498 286.455 66.477V103.864H256.546V66.477C256.545 62.3498 253.203 59 249.068 59C244.933 59 241.591 62.3498 241.591 66.477V103.864H211.682V66.477C211.682 62.3498 208.34 59 204.205 59C200.07 59 196.728 62.3498 196.728 66.477V103.864H189.25C168.635 103.864 151.864 120.635 151.864 141.25V148.727H114.477C110.342 148.727 107 152.077 107 156.205C107 160.332 110.342 163.682 114.477 163.682H151.864V193.591H114.477C110.342 193.591 107 196.941 107 201.068C107 205.196 110.342 208.545 114.477 208.545H151.864V238.454H114.477C110.342 238.455 107 241.804 107 245.932C107 250.059 110.342 253.409 114.477 253.409H151.864V283.318H114.477C110.342 283.318 107 286.668 107 290.795C107 294.923 110.342 298.272 114.477 298.272H151.864V305.75C151.864 326.365 168.635 343.136 189.25 343.136H196.727V380.523C196.727 384.65 200.069 388 204.204 388C208.339 388 211.681 384.65 211.681 380.523V343.136H241.59V380.523C241.59 384.65 244.932 388 249.067 388C253.202 388 256.544 384.65 256.544 380.523V343.136H286.453V380.523C286.453 384.65 289.795 388 293.93 388C298.065 388 301.407 384.65 301.407 380.523V343.136H331.316V380.523C331.316 384.65 334.658 388 338.793 388C342.928 388 346.27 384.65 346.27 380.523V343.136H353.75C374.365 343.136 391.136 326.365 391.136 305.75V298.273H428.523C432.658 298.273 436 294.923 436 290.796C436 286.669 432.658 283.319 428.523 283.319H383.659C379.524 283.319 376.182 286.669 376.182 290.796V305.75C376.182 318.118 366.118 328.182 353.751 328.182H189.25C176.882 328.182 166.818 318.117 166.818 305.75V141.25C166.818 128.882 176.883 118.818 189.25 118.818H353.75C366.118 118.818 376.182 128.883 376.182 141.25V260.886C376.182 265.014 379.524 268.364 383.659 268.364C387.794 268.364 391.136 265.014 391.136 260.886V253.409H428.522C432.657 253.409 435.999 250.06 435.999 245.932C435.999 241.805 432.657 238.455 428.522 238.455H391.136V208.547H428.523V208.545Z" fill="#8062D6"/>
<path d="M249.068 178.636C236.701 178.636 226.637 188.701 226.637 201.068C226.637 210.804 232.91 219.029 241.591 222.124V283.318H219.16C215.039 283.318 211.69 279.961 211.69 275.841V171.159C211.69 167.039 215.039 163.682 219.167 163.682H264.023C268.158 163.682 271.5 160.332 271.5 156.205C271.5 152.077 268.158 148.728 264.023 148.728H219.167C206.799 148.728 196.735 158.792 196.735 171.159V275.841C196.735 288.209 206.8 298.273 219.159 298.273H249.068C253.203 298.273 256.545 294.923 256.545 290.796V222.124C265.226 219.029 271.499 210.804 271.499 201.068C271.5 188.701 261.435 178.636 249.068 178.636ZM249.068 208.545C244.941 208.545 241.591 205.188 241.591 201.068C241.591 196.948 244.941 193.591 249.068 193.591C253.196 193.591 256.545 196.949 256.545 201.068C256.545 205.188 253.196 208.545 249.068 208.545Z" fill="#8062D6"/>
<path d="M323.833 148.727H293.932C289.797 148.727 286.455 152.077 286.455 156.204V224.875C277.773 227.972 271.5 236.197 271.5 245.932C271.5 258.299 281.565 268.364 293.932 268.364C306.299 268.364 316.363 258.299 316.363 245.932C316.363 236.196 310.09 227.971 301.409 224.876V163.682H323.833C327.96 163.682 331.31 167.039 331.31 171.159V275.841C331.31 279.961 327.96 283.318 323.833 283.318H278.976C274.841 283.318 271.499 286.667 271.499 290.795C271.499 294.922 274.841 298.272 278.976 298.272H323.833C336.2 298.272 346.265 288.207 346.265 275.84V171.159C346.265 158.792 336.2 148.727 323.833 148.727ZM293.932 253.409C289.804 253.409 286.455 250.051 286.455 245.932C286.455 241.812 289.804 238.455 293.932 238.455C298.059 238.455 301.409 241.812 301.409 245.932C301.409 250.052 298.059 253.409 293.932 253.409Z" fill="#8062D6"/>
</g>
<path d="M579.636 265H530.347V119.545H580.631C595.072 119.545 607.477 122.457 617.847 128.281C628.263 134.058 636.265 142.367 641.852 153.21C647.439 164.053 650.233 177.027 650.233 192.131C650.233 207.282 647.416 220.303 641.781 231.193C636.194 242.083 628.121 250.44 617.562 256.264C607.051 262.088 594.409 265 579.636 265ZM556.696 242.202H578.358C588.491 242.202 596.942 240.355 603.713 236.662C610.484 232.921 615.574 227.358 618.983 219.972C622.392 212.538 624.097 203.258 624.097 192.131C624.097 181.004 622.392 171.771 618.983 164.432C615.574 157.045 610.531 151.529 603.855 147.884C597.226 144.19 588.988 142.344 579.139 142.344H556.696V242.202ZM722.428 267.131C711.49 267.131 702.044 264.858 694.089 260.312C686.182 255.72 680.098 249.233 675.837 240.852C671.575 232.424 669.445 222.505 669.445 211.094C669.445 199.872 671.575 190.024 675.837 181.548C680.145 173.026 686.159 166.397 693.876 161.662C701.594 156.88 710.661 154.489 721.078 154.489C727.802 154.489 734.146 155.578 740.112 157.756C746.125 159.886 751.429 163.201 756.021 167.699C760.661 172.197 764.307 177.926 766.959 184.886C769.61 191.799 770.936 200.038 770.936 209.602V217.486H681.518V200.156H746.291C746.244 195.232 745.179 190.852 743.095 187.017C741.012 183.134 738.1 180.08 734.359 177.855C730.666 175.63 726.357 174.517 721.433 174.517C716.178 174.517 711.561 175.795 707.584 178.352C703.607 180.862 700.505 184.176 698.28 188.295C696.102 192.367 694.989 196.842 694.942 201.719V216.847C694.942 223.191 696.102 228.636 698.422 233.182C700.742 237.68 703.985 241.136 708.152 243.551C712.319 245.919 717.196 247.102 722.783 247.102C726.523 247.102 729.909 246.581 732.939 245.54C735.969 244.451 738.597 242.865 740.822 240.781C743.048 238.698 744.729 236.117 745.865 233.04L769.871 235.739C768.356 242.083 765.467 247.623 761.206 252.358C756.992 257.045 751.594 260.691 745.013 263.295C738.431 265.852 730.903 267.131 722.428 267.131ZM887.005 155.909L848.156 265H819.746L780.897 155.909H808.312L833.383 236.946H834.519L859.661 155.909H887.005ZM904.796 265V155.909H930.506V265H904.796ZM917.722 140.426C913.65 140.426 910.147 139.077 907.211 136.378C904.275 133.632 902.808 130.341 902.808 126.506C902.808 122.623 904.275 119.332 907.211 116.634C910.147 113.887 913.65 112.514 917.722 112.514C921.842 112.514 925.345 113.887 928.234 116.634C931.169 119.332 932.637 122.623 932.637 126.506C932.637 130.341 931.169 133.632 928.234 136.378C925.345 139.077 921.842 140.426 917.722 140.426ZM1004.53 267.131C993.64 267.131 984.288 264.74 976.476 259.957C968.711 255.175 962.721 248.57 958.507 240.142C954.34 231.667 952.257 221.913 952.257 210.881C952.257 199.801 954.388 190.024 958.649 181.548C962.911 173.026 968.924 166.397 976.689 161.662C984.501 156.88 993.734 154.489 1004.39 154.489C1013.24 154.489 1021.08 156.122 1027.9 159.389C1034.76 162.609 1040.23 167.178 1044.3 173.097C1048.37 178.968 1050.69 185.833 1051.26 193.693H1026.69C1025.69 188.437 1023.33 184.058 1019.59 180.554C1015.89 177.003 1010.95 175.227 1004.74 175.227C999.487 175.227 994.871 176.648 990.893 179.489C986.916 182.282 983.815 186.307 981.589 191.562C979.411 196.818 978.322 203.116 978.322 210.455C978.322 217.888 979.411 224.28 981.589 229.631C983.768 234.934 986.821 239.029 990.751 241.918C994.729 244.759 999.393 246.179 1004.74 246.179C1008.53 246.179 1011.92 245.469 1014.9 244.048C1017.93 242.58 1020.46 240.473 1022.5 237.727C1024.53 234.981 1025.93 231.643 1026.69 227.713H1051.26C1050.65 235.431 1048.37 242.273 1044.44 248.239C1040.51 254.157 1035.16 258.797 1028.39 262.159C1021.62 265.473 1013.67 267.131 1004.53 267.131ZM1120.67 267.131C1109.73 267.131 1100.29 264.858 1092.33 260.312C1084.42 255.72 1078.34 249.233 1074.08 240.852C1069.82 232.424 1067.69 222.505 1067.69 211.094C1067.69 199.872 1069.82 190.024 1074.08 181.548C1078.39 173.026 1084.4 166.397 1092.12 161.662C1099.84 156.88 1108.9 154.489 1119.32 154.489C1126.04 154.489 1132.39 155.578 1138.35 157.756C1144.37 159.886 1149.67 163.201 1154.26 167.699C1158.9 172.197 1162.55 177.926 1165.2 184.886C1167.85 191.799 1169.18 200.038 1169.18 209.602V217.486H1079.76V200.156H1144.53C1144.49 195.232 1143.42 190.852 1141.34 187.017C1139.25 183.134 1136.34 180.08 1132.6 177.855C1128.91 175.63 1124.6 174.517 1119.68 174.517C1114.42 174.517 1109.8 175.795 1105.83 178.352C1101.85 180.862 1098.75 184.176 1096.52 188.295C1094.34 192.367 1093.23 196.842 1093.18 201.719V216.847C1093.18 223.191 1094.34 228.636 1096.66 233.182C1098.98 237.68 1102.23 241.136 1106.39 243.551C1110.56 245.919 1115.44 247.102 1121.02 247.102C1124.77 247.102 1128.15 246.581 1131.18 245.54C1134.21 244.451 1136.84 242.865 1139.06 240.781C1141.29 238.698 1142.97 236.117 1144.11 233.04L1168.11 235.739C1166.6 242.083 1163.71 247.623 1159.45 252.358C1155.23 257.045 1149.84 260.691 1143.25 263.295C1136.67 265.852 1129.15 267.131 1120.67 267.131ZM1268.02 119.545V265H1241.67V119.545H1268.02ZM1321.13 201.08V265H1295.42V155.909H1320V174.446H1321.27C1323.78 168.338 1327.78 163.485 1333.28 159.886C1338.82 156.288 1345.66 154.489 1353.8 154.489C1361.33 154.489 1367.89 156.098 1373.48 159.318C1379.11 162.538 1383.47 167.202 1386.54 173.31C1389.67 179.418 1391.21 186.828 1391.16 195.54V265H1365.45V199.517C1365.45 192.225 1363.56 186.52 1359.77 182.401C1356.03 178.281 1350.84 176.222 1344.21 176.222C1339.72 176.222 1335.71 177.216 1332.21 179.205C1328.75 181.146 1326.03 183.963 1324.04 187.656C1322.1 191.349 1321.13 195.824 1321.13 201.08ZM1472.55 155.909V175.795H1408.06V155.909H1472.55ZM1424.19 265V145.611C1424.19 138.272 1425.7 132.164 1428.73 127.287C1431.81 122.41 1435.93 118.764 1441.09 116.349C1446.25 113.935 1451.98 112.727 1458.28 112.727C1462.73 112.727 1466.68 113.082 1470.14 113.793C1473.59 114.503 1476.15 115.142 1477.81 115.71L1472.69 135.597C1471.6 135.265 1470.23 134.934 1468.57 134.602C1466.92 134.223 1465.07 134.034 1463.03 134.034C1458.25 134.034 1454.87 135.194 1452.88 137.514C1450.94 139.787 1449.97 143.054 1449.97 147.315V265H1424.19ZM1536.17 267.131C1525.52 267.131 1516.28 264.787 1508.47 260.099C1500.66 255.412 1494.6 248.854 1490.29 240.426C1486.03 231.998 1483.9 222.15 1483.9 210.881C1483.9 199.612 1486.03 189.74 1490.29 181.264C1494.6 172.789 1500.66 166.207 1508.47 161.52C1516.28 156.832 1525.52 154.489 1536.17 154.489C1546.82 154.489 1556.06 156.832 1563.87 161.52C1571.68 166.207 1577.72 172.789 1581.98 181.264C1586.29 189.74 1588.44 199.612 1588.44 210.881C1588.44 222.15 1586.29 231.998 1581.98 240.426C1577.72 248.854 1571.68 255.412 1563.87 260.099C1556.06 264.787 1546.82 267.131 1536.17 267.131ZM1536.31 246.534C1542.09 246.534 1546.92 244.948 1550.8 241.776C1554.68 238.556 1557.57 234.247 1559.47 228.849C1561.41 223.452 1562.38 217.438 1562.38 210.81C1562.38 204.134 1561.41 198.097 1559.47 192.699C1557.57 187.254 1554.68 182.921 1550.8 179.702C1546.92 176.482 1542.09 174.872 1536.31 174.872C1530.39 174.872 1525.47 176.482 1521.54 179.702C1517.66 182.921 1514.75 187.254 1512.8 192.699C1510.91 198.097 1509.96 204.134 1509.96 210.81C1509.96 217.438 1510.91 223.452 1512.8 228.849C1514.75 234.247 1517.66 238.556 1521.54 241.776C1525.47 244.948 1530.39 246.534 1536.31 246.534Z" fill="#8062D6"/>
<path d="M619.304 364V320.364H627.209V338.837H647.429V320.364H655.355V364H647.429V345.463H627.209V364H619.304ZM673.029 364.661C670.955 364.661 669.087 364.291 667.425 363.553C665.778 362.8 664.471 361.692 663.505 360.229C662.553 358.766 662.077 356.962 662.077 354.817C662.077 352.97 662.418 351.443 663.1 350.236C663.782 349.028 664.712 348.062 665.891 347.338C667.07 346.614 668.398 346.067 669.876 345.697C671.367 345.314 672.908 345.037 674.499 344.866C676.417 344.668 677.972 344.49 679.165 344.334C680.359 344.163 681.225 343.908 681.765 343.567C682.319 343.212 682.596 342.665 682.596 341.926V341.798C682.596 340.193 682.12 338.95 681.168 338.07C680.217 337.189 678.846 336.749 677.056 336.749C675.167 336.749 673.668 337.161 672.56 337.984C671.467 338.808 670.728 339.781 670.344 340.903L663.143 339.881C663.711 337.892 664.648 336.23 665.955 334.895C667.262 333.545 668.86 332.537 670.749 331.869C672.638 331.188 674.727 330.847 677.013 330.847C678.59 330.847 680.16 331.031 681.722 331.401C683.285 331.77 684.712 332.381 686.005 333.233C687.298 334.071 688.335 335.214 689.116 336.663C689.911 338.112 690.309 339.923 690.309 342.097V364H682.894V359.504H682.638C682.17 360.413 681.509 361.266 680.657 362.061C679.819 362.842 678.761 363.474 677.482 363.957C676.218 364.426 674.734 364.661 673.029 364.661ZM675.032 358.993C676.58 358.993 677.923 358.687 679.059 358.077C680.195 357.452 681.069 356.628 681.68 355.605C682.305 354.582 682.617 353.467 682.617 352.26V348.403C682.376 348.602 681.964 348.787 681.381 348.957C680.813 349.128 680.174 349.277 679.464 349.405C678.754 349.533 678.05 349.646 677.354 349.746C676.658 349.845 676.055 349.93 675.543 350.001C674.393 350.158 673.363 350.413 672.454 350.768C671.545 351.124 670.827 351.621 670.302 352.26C669.776 352.885 669.513 353.695 669.513 354.689C669.513 356.109 670.032 357.182 671.069 357.906C672.106 358.631 673.427 358.993 675.032 358.993ZM698.065 364V331.273H705.543V336.727H705.884C706.481 334.838 707.504 333.382 708.952 332.359C710.415 331.322 712.085 330.804 713.96 330.804C714.386 330.804 714.862 330.825 715.387 330.868C715.927 330.896 716.374 330.946 716.729 331.017V338.112C716.403 337.999 715.884 337.899 715.174 337.814C714.478 337.714 713.803 337.665 713.15 337.665C711.744 337.665 710.479 337.97 709.357 338.581C708.249 339.178 707.376 340.009 706.737 341.074C706.097 342.139 705.778 343.368 705.778 344.76V364H698.065ZM732.651 364.575C730.08 364.575 727.779 363.915 725.748 362.594C723.716 361.273 722.111 359.355 720.932 356.841C719.753 354.327 719.164 351.273 719.164 347.679C719.164 344.043 719.76 340.974 720.953 338.474C722.161 335.96 723.787 334.064 725.833 332.786C727.878 331.493 730.158 330.847 732.672 330.847C734.59 330.847 736.167 331.173 737.402 331.827C738.638 332.466 739.618 333.24 740.343 334.149C741.067 335.044 741.628 335.889 742.026 336.685H742.346V320.364H750.08V364H742.495V358.844H742.026C741.628 359.639 741.053 360.484 740.3 361.379C739.547 362.26 738.553 363.013 737.317 363.638C736.081 364.263 734.526 364.575 732.651 364.575ZM734.803 358.247C736.436 358.247 737.828 357.807 738.979 356.926C740.13 356.031 741.003 354.788 741.6 353.197C742.196 351.607 742.495 349.753 742.495 347.636C742.495 345.52 742.196 343.68 741.6 342.118C741.017 340.555 740.151 339.341 739 338.474C737.864 337.608 736.465 337.175 734.803 337.175C733.084 337.175 731.65 337.622 730.499 338.517C729.348 339.412 728.482 340.648 727.9 342.224C727.317 343.801 727.026 345.605 727.026 347.636C727.026 349.682 727.317 351.507 727.9 353.112C728.496 354.703 729.37 355.96 730.52 356.884C731.685 357.793 733.113 358.247 734.803 358.247ZM765.053 364L755.806 331.273H763.668L769.421 354.284H769.719L775.6 331.273H783.377L789.258 354.156H789.577L795.245 331.273H803.129L793.86 364H785.827L779.691 341.884H779.244L773.107 364H765.053ZM817.931 364.661C815.858 364.661 813.99 364.291 812.328 363.553C810.68 362.8 809.373 361.692 808.407 360.229C807.456 358.766 806.98 356.962 806.98 354.817C806.98 352.97 807.321 351.443 808.002 350.236C808.684 349.028 809.615 348.062 810.794 347.338C811.973 346.614 813.301 346.067 814.778 345.697C816.27 345.314 817.811 345.037 819.402 344.866C821.319 344.668 822.875 344.49 824.068 344.334C825.261 344.163 826.127 343.908 826.667 343.567C827.221 343.212 827.498 342.665 827.498 341.926V341.798C827.498 340.193 827.022 338.95 826.071 338.07C825.119 337.189 823.748 336.749 821.958 336.749C820.069 336.749 818.571 337.161 817.463 337.984C816.369 338.808 815.63 339.781 815.247 340.903L808.045 339.881C808.613 337.892 809.551 336.23 810.858 334.895C812.164 333.545 813.762 332.537 815.652 331.869C817.541 331.188 819.629 330.847 821.916 330.847C823.493 330.847 825.062 331.031 826.625 331.401C828.187 331.77 829.615 332.381 830.907 333.233C832.2 334.071 833.237 335.214 834.018 336.663C834.814 338.112 835.211 339.923 835.211 342.097V364H827.797V359.504H827.541C827.072 360.413 826.412 361.266 825.559 362.061C824.721 362.842 823.663 363.474 822.385 363.957C821.12 364.426 819.636 364.661 817.931 364.661ZM819.934 358.993C821.483 358.993 822.825 358.687 823.961 358.077C825.098 357.452 825.971 356.628 826.582 355.605C827.207 354.582 827.52 353.467 827.52 352.26V348.403C827.278 348.602 826.866 348.787 826.284 348.957C825.716 349.128 825.076 349.277 824.366 349.405C823.656 349.533 822.953 349.646 822.257 349.746C821.561 349.845 820.957 349.93 820.446 350.001C819.295 350.158 818.265 350.413 817.356 350.768C816.447 351.124 815.73 351.621 815.204 352.26C814.679 352.885 814.416 353.695 814.416 354.689C814.416 356.109 814.934 357.182 815.971 357.906C817.008 358.631 818.329 358.993 819.934 358.993ZM842.967 364V331.273H850.446V336.727H850.787C851.383 334.838 852.406 333.382 853.855 332.359C855.318 331.322 856.987 330.804 858.862 330.804C859.288 330.804 859.764 330.825 860.289 330.868C860.829 330.896 861.277 330.946 861.632 331.017V338.112C861.305 337.999 860.787 337.899 860.076 337.814C859.38 337.714 858.706 337.665 858.052 337.665C856.646 337.665 855.382 337.97 854.26 338.581C853.152 339.178 852.278 340.009 851.639 341.074C851 342.139 850.68 343.368 850.68 344.76V364H842.967ZM879.897 364.639C876.616 364.639 873.782 363.957 871.396 362.594C869.023 361.216 867.198 359.27 865.92 356.756C864.641 354.227 864.002 351.251 864.002 347.828C864.002 344.462 864.641 341.507 865.92 338.964C867.212 336.408 869.016 334.419 871.332 332.999C873.647 331.564 876.367 330.847 879.492 330.847C881.509 330.847 883.413 331.173 885.202 331.827C887.006 332.466 888.597 333.46 889.975 334.81C891.367 336.159 892.461 337.878 893.256 339.966C894.052 342.04 894.45 344.511 894.45 347.381V349.746H867.624V344.547H887.056C887.042 343.07 886.722 341.756 886.097 340.605C885.472 339.44 884.599 338.524 883.477 337.857C882.369 337.189 881.076 336.855 879.599 336.855C878.022 336.855 876.637 337.239 875.444 338.006C874.251 338.759 873.32 339.753 872.653 340.989C871.999 342.21 871.665 343.553 871.651 345.016V349.554C871.651 351.457 871.999 353.091 872.695 354.455C873.391 355.804 874.364 356.841 875.614 357.565C876.864 358.276 878.327 358.631 880.004 358.631C881.126 358.631 882.141 358.474 883.05 358.162C883.96 357.835 884.748 357.359 885.415 356.734C886.083 356.109 886.587 355.335 886.928 354.412L894.13 355.222C893.675 357.125 892.809 358.787 891.531 360.207C890.266 361.614 888.647 362.707 886.673 363.489C884.698 364.256 882.44 364.639 879.897 364.639ZM941.671 351.557C939.952 351.557 938.382 351.138 936.962 350.3C935.542 349.447 934.405 348.311 933.553 346.891C932.715 345.47 932.296 343.901 932.296 342.182C932.296 340.449 932.715 338.879 933.553 337.473C934.405 336.053 935.542 334.923 936.962 334.085C938.382 333.233 939.952 332.807 941.671 332.807C943.404 332.807 944.973 333.233 946.38 334.085C947.8 334.923 948.929 336.053 949.767 337.473C950.62 338.879 951.046 340.449 951.046 342.182C951.046 343.901 950.62 345.47 949.767 346.891C948.929 348.311 947.8 349.447 946.38 350.3C944.973 351.138 943.404 351.557 941.671 351.557ZM999.444 332.359C999.245 330.499 998.407 329.05 996.93 328.013C995.467 326.976 993.564 326.457 991.22 326.457C989.572 326.457 988.159 326.706 986.98 327.203C985.801 327.7 984.899 328.375 984.274 329.227C983.649 330.08 983.329 331.053 983.315 332.146C983.315 333.055 983.521 333.844 983.933 334.511C984.359 335.179 984.934 335.747 985.659 336.216C986.383 336.67 987.186 337.054 988.066 337.366C988.947 337.679 989.835 337.942 990.73 338.155L994.821 339.178C996.468 339.561 998.052 340.08 999.572 340.733C1001.11 341.386 1002.48 342.21 1003.68 343.205C1004.91 344.199 1005.87 345.399 1006.58 346.805C1007.29 348.212 1007.65 349.859 1007.65 351.749C1007.65 354.305 1006.99 356.557 1005.69 358.503C1004.38 360.435 1002.49 361.947 1000.02 363.041C997.562 364.121 994.586 364.661 991.092 364.661C987.697 364.661 984.75 364.135 982.25 363.084C979.764 362.033 977.818 360.499 976.412 358.482C975.02 356.464 974.267 354.007 974.153 351.109H981.93C982.044 352.629 982.512 353.893 983.336 354.902C984.16 355.911 985.233 356.663 986.554 357.161C987.889 357.658 989.38 357.906 991.028 357.906C992.747 357.906 994.252 357.651 995.545 357.139C996.852 356.614 997.875 355.889 998.613 354.966C999.352 354.028 999.728 352.935 999.743 351.685C999.728 350.548 999.395 349.611 998.741 348.872C998.088 348.119 997.172 347.494 995.993 346.997C994.828 346.486 993.464 346.031 991.902 345.634L986.937 344.355C983.343 343.432 980.502 342.033 978.414 340.158C976.341 338.268 975.304 335.761 975.304 332.636C975.304 330.065 976 327.814 977.392 325.882C978.798 323.95 980.708 322.452 983.123 321.386C985.538 320.307 988.272 319.767 991.326 319.767C994.423 319.767 997.136 320.307 999.466 321.386C1001.81 322.452 1003.65 323.936 1004.98 325.839C1006.32 327.729 1007.01 329.902 1007.05 332.359H999.444ZM1028.84 364.639C1025.56 364.639 1022.73 363.957 1020.34 362.594C1017.97 361.216 1016.14 359.27 1014.87 356.756C1013.59 354.227 1012.95 351.251 1012.95 347.828C1012.95 344.462 1013.59 341.507 1014.87 338.964C1016.16 336.408 1017.96 334.419 1020.28 332.999C1022.59 331.564 1025.31 330.847 1028.44 330.847C1030.45 330.847 1032.36 331.173 1034.15 331.827C1035.95 332.466 1037.54 333.46 1038.92 334.81C1040.31 336.159 1041.41 337.878 1042.2 339.966C1043 342.04 1043.39 344.511 1043.39 347.381V349.746H1016.57V344.547H1036C1035.99 343.07 1035.67 341.756 1035.04 340.605C1034.42 339.44 1033.54 338.524 1032.42 337.857C1031.31 337.189 1030.02 336.855 1028.54 336.855C1026.97 336.855 1025.58 337.239 1024.39 338.006C1023.2 338.759 1022.27 339.753 1021.6 340.989C1020.94 342.21 1020.61 343.553 1020.6 345.016V349.554C1020.6 351.457 1020.94 353.091 1021.64 354.455C1022.34 355.804 1023.31 356.841 1024.56 357.565C1025.81 358.276 1027.27 358.631 1028.95 358.631C1030.07 358.631 1031.09 358.474 1032 358.162C1032.9 357.835 1033.69 357.359 1034.36 356.734C1035.03 356.109 1035.53 355.335 1035.87 354.412L1043.08 355.222C1042.62 357.125 1041.75 358.787 1040.48 360.207C1039.21 361.614 1037.59 362.707 1035.62 363.489C1033.64 364.256 1031.38 364.639 1028.84 364.639ZM1057.63 344.824V364H1049.92V331.273H1057.29V336.834H1057.68C1058.43 335.001 1059.63 333.545 1061.28 332.466C1062.94 331.386 1064.99 330.847 1067.43 330.847C1069.69 330.847 1071.66 331.33 1073.34 332.295C1075.03 333.261 1076.33 334.661 1077.26 336.493C1078.19 338.325 1078.66 340.548 1078.64 343.162V364H1070.93V344.355C1070.93 342.168 1070.36 340.456 1069.22 339.22C1068.1 337.984 1066.55 337.366 1064.56 337.366C1063.21 337.366 1062.01 337.665 1060.96 338.261C1059.92 338.844 1059.1 339.689 1058.51 340.797C1057.92 341.905 1057.63 343.247 1057.63 344.824ZM1112.35 339.923L1105.32 340.69C1105.12 339.98 1104.77 339.312 1104.27 338.688C1103.79 338.062 1103.14 337.558 1102.31 337.175C1101.49 336.791 1100.48 336.599 1099.29 336.599C1097.68 336.599 1096.33 336.947 1095.24 337.643C1094.16 338.339 1093.63 339.241 1093.64 340.349C1093.63 341.301 1093.98 342.075 1094.69 342.672C1095.41 343.268 1096.6 343.759 1098.27 344.142L1103.85 345.335C1106.94 346.003 1109.25 347.061 1110.75 348.51C1112.27 349.959 1113.04 351.855 1113.05 354.199C1113.04 356.259 1112.43 358.077 1111.24 359.653C1110.06 361.216 1108.42 362.437 1106.32 363.318C1104.22 364.199 1101.8 364.639 1099.07 364.639C1095.07 364.639 1091.84 363.801 1089.4 362.125C1086.96 360.435 1085.5 358.084 1085.03 355.072L1092.56 354.348C1092.9 355.825 1093.62 356.94 1094.73 357.693C1095.84 358.446 1097.28 358.822 1099.05 358.822C1100.89 358.822 1102.36 358.446 1103.46 357.693C1104.59 356.94 1105.15 356.01 1105.15 354.902C1105.15 353.964 1104.79 353.19 1104.06 352.58C1103.35 351.969 1102.24 351.5 1100.74 351.173L1095.15 350.001C1092.02 349.348 1089.69 348.247 1088.19 346.699C1086.68 345.136 1085.94 343.162 1085.95 340.776C1085.94 338.759 1086.48 337.011 1087.59 335.534C1088.71 334.043 1090.27 332.892 1092.26 332.082C1094.26 331.259 1096.57 330.847 1099.18 330.847C1103.02 330.847 1106.04 331.663 1108.24 333.297C1110.45 334.93 1111.82 337.139 1112.35 339.923ZM1133.69 364.639C1130.49 364.639 1127.72 363.936 1125.38 362.53C1123.03 361.124 1121.22 359.156 1119.92 356.628C1118.65 354.099 1118.01 351.145 1118.01 347.764C1118.01 344.384 1118.65 341.422 1119.92 338.879C1121.22 336.337 1123.03 334.362 1125.38 332.956C1127.72 331.55 1130.49 330.847 1133.69 330.847C1136.88 330.847 1139.65 331.55 1142 332.956C1144.34 334.362 1146.15 336.337 1147.43 338.879C1148.72 341.422 1149.37 344.384 1149.37 347.764C1149.37 351.145 1148.72 354.099 1147.43 356.628C1146.15 359.156 1144.34 361.124 1142 362.53C1139.65 363.936 1136.88 364.639 1133.69 364.639ZM1133.73 358.46C1135.46 358.46 1136.91 357.984 1138.08 357.033C1139.24 356.067 1140.11 354.774 1140.68 353.155C1141.26 351.536 1141.55 349.732 1141.55 347.743C1141.55 345.74 1141.26 343.929 1140.68 342.31C1140.11 340.676 1139.24 339.376 1138.08 338.411C1136.91 337.445 1135.46 336.962 1133.73 336.962C1131.95 336.962 1130.48 337.445 1129.3 338.411C1128.13 339.376 1127.26 340.676 1126.68 342.31C1126.11 343.929 1125.83 345.74 1125.83 347.743C1125.83 349.732 1126.11 351.536 1126.68 353.155C1127.26 354.774 1128.13 356.067 1129.3 357.033C1130.48 357.984 1131.95 358.46 1133.73 358.46ZM1155.92 364V331.273H1163.39V336.727H1163.74C1164.33 334.838 1165.36 333.382 1166.8 332.359C1168.27 331.322 1169.94 330.804 1171.81 330.804C1172.24 330.804 1172.71 330.825 1173.24 330.868C1173.78 330.896 1174.23 330.946 1174.58 331.017V338.112C1174.25 337.999 1173.74 337.899 1173.03 337.814C1172.33 337.714 1171.65 337.665 1171 337.665C1169.6 337.665 1168.33 337.97 1167.21 338.581C1166.1 339.178 1165.23 340.009 1164.59 341.074C1163.95 342.139 1163.63 343.368 1163.63 344.76V364H1155.92ZM1205.52 351.557C1203.8 351.557 1202.23 351.138 1200.81 350.3C1199.39 349.447 1198.25 348.311 1197.4 346.891C1196.56 345.47 1196.14 343.901 1196.14 342.182C1196.14 340.449 1196.56 338.879 1197.4 337.473C1198.25 336.053 1199.39 334.923 1200.81 334.085C1202.23 333.233 1203.8 332.807 1205.52 332.807C1207.25 332.807 1208.82 333.233 1210.23 334.085C1211.65 334.923 1212.78 336.053 1213.62 337.473C1214.47 338.879 1214.89 340.449 1214.89 342.182C1214.89 343.901 1214.47 345.47 1213.62 346.891C1212.78 348.311 1211.65 349.447 1210.23 350.3C1208.82 351.138 1207.25 351.557 1205.52 351.557ZM1263.29 332.359C1263.09 330.499 1262.25 329.05 1260.78 328.013C1259.31 326.976 1257.41 326.457 1255.07 326.457C1253.42 326.457 1252.01 326.706 1250.83 327.203C1249.65 327.7 1248.75 328.375 1248.12 329.227C1247.5 330.08 1247.18 331.053 1247.16 332.146C1247.16 333.055 1247.37 333.844 1247.78 334.511C1248.21 335.179 1248.78 335.747 1249.51 336.216C1250.23 336.67 1251.03 337.054 1251.91 337.366C1252.79 337.679 1253.68 337.942 1254.58 338.155L1258.67 339.178C1260.32 339.561 1261.9 340.08 1263.42 340.733C1264.95 341.386 1266.32 342.21 1267.53 343.205C1268.75 344.199 1269.72 345.399 1270.43 346.805C1271.14 348.212 1271.5 349.859 1271.5 351.749C1271.5 354.305 1270.84 356.557 1269.53 358.503C1268.23 360.435 1266.34 361.947 1263.87 363.041C1261.41 364.121 1258.43 364.661 1254.94 364.661C1251.54 364.661 1248.6 364.135 1246.1 363.084C1243.61 362.033 1241.67 360.499 1240.26 358.482C1238.87 356.464 1238.11 354.007 1238 351.109H1245.78C1245.89 352.629 1246.36 353.893 1247.18 354.902C1248.01 355.911 1249.08 356.663 1250.4 357.161C1251.74 357.658 1253.23 357.906 1254.88 357.906C1256.59 357.906 1258.1 357.651 1259.39 357.139C1260.7 356.614 1261.72 355.889 1262.46 354.966C1263.2 354.028 1263.58 352.935 1263.59 351.685C1263.58 350.548 1263.24 349.611 1262.59 348.872C1261.94 348.119 1261.02 347.494 1259.84 346.997C1258.68 346.486 1257.31 346.031 1255.75 345.634L1250.78 344.355C1247.19 343.432 1244.35 342.033 1242.26 340.158C1240.19 338.268 1239.15 335.761 1239.15 332.636C1239.15 330.065 1239.85 327.814 1241.24 325.882C1242.65 323.95 1244.56 322.452 1246.97 321.386C1249.39 320.307 1252.12 319.767 1255.17 319.767C1258.27 319.767 1260.98 320.307 1263.31 321.386C1265.66 322.452 1267.5 323.936 1268.83 325.839C1270.17 327.729 1270.86 329.902 1270.9 332.359H1263.29ZM1292.48 364.639C1289.28 364.639 1286.51 363.936 1284.17 362.53C1281.82 361.124 1280.01 359.156 1278.71 356.628C1277.43 354.099 1276.8 351.145 1276.8 347.764C1276.8 344.384 1277.43 341.422 1278.71 338.879C1280.01 336.337 1281.82 334.362 1284.17 332.956C1286.51 331.55 1289.28 330.847 1292.48 330.847C1295.67 330.847 1298.44 331.55 1300.79 332.956C1303.13 334.362 1304.94 336.337 1306.22 338.879C1307.51 341.422 1308.16 344.384 1308.16 347.764C1308.16 351.145 1307.51 354.099 1306.22 356.628C1304.94 359.156 1303.13 361.124 1300.79 362.53C1298.44 363.936 1295.67 364.639 1292.48 364.639ZM1292.52 358.46C1294.25 358.46 1295.7 357.984 1296.87 357.033C1298.03 356.067 1298.9 354.774 1299.47 353.155C1300.05 351.536 1300.34 349.732 1300.34 347.743C1300.34 345.74 1300.05 343.929 1299.47 342.31C1298.9 340.676 1298.03 339.376 1296.87 338.411C1295.7 337.445 1294.25 336.962 1292.52 336.962C1290.74 336.962 1289.27 337.445 1288.09 338.411C1286.92 339.376 1286.05 340.676 1285.47 342.31C1284.9 343.929 1284.61 345.74 1284.61 347.743C1284.61 349.732 1284.9 351.536 1285.47 353.155C1286.05 354.774 1286.92 356.067 1288.09 357.033C1289.27 357.984 1290.74 358.46 1292.52 358.46ZM1331.28 331.273V337.239H1311.94V331.273H1331.28ZM1316.77 364V328.183C1316.77 325.982 1317.23 324.149 1318.14 322.686C1319.06 321.223 1320.29 320.129 1321.84 319.405C1323.39 318.68 1325.11 318.318 1327 318.318C1328.33 318.318 1329.52 318.425 1330.56 318.638C1331.59 318.851 1332.36 319.043 1332.86 319.213L1331.32 325.179C1331 325.08 1330.59 324.98 1330.09 324.881C1329.59 324.767 1329.04 324.71 1328.43 324.71C1326.99 324.71 1325.98 325.058 1325.38 325.754C1324.8 326.436 1324.51 327.416 1324.51 328.695V364H1316.77ZM1353.66 331.273V337.239H1334.85V331.273H1353.66ZM1339.5 323.432H1347.21V354.156C1347.21 355.193 1347.37 355.989 1347.68 356.543C1348 357.082 1348.43 357.452 1348.96 357.651C1349.48 357.849 1350.06 357.949 1350.7 357.949C1351.19 357.949 1351.63 357.913 1352.02 357.842C1352.44 357.771 1352.75 357.707 1352.96 357.651L1354.26 363.68C1353.85 363.822 1353.26 363.979 1352.49 364.149C1351.74 364.32 1350.82 364.419 1349.72 364.447C1347.79 364.504 1346.05 364.213 1344.5 363.574C1342.95 362.92 1341.73 361.912 1340.82 360.548C1339.92 359.185 1339.48 357.48 1339.5 355.435V323.432ZM1366.87 364L1357.62 331.273H1365.48L1371.24 354.284H1371.54L1377.42 331.273H1385.19L1391.07 354.156H1391.39L1397.06 331.273H1404.94L1395.68 364H1387.64L1381.51 341.884H1381.06L1374.92 364H1366.87ZM1419.75 364.661C1417.67 364.661 1415.81 364.291 1414.14 363.553C1412.5 362.8 1411.19 361.692 1410.22 360.229C1409.27 358.766 1408.8 356.962 1408.8 354.817C1408.8 352.97 1409.14 351.443 1409.82 350.236C1410.5 349.028 1411.43 348.062 1412.61 347.338C1413.79 346.614 1415.12 346.067 1416.59 345.697C1418.09 345.314 1419.63 345.037 1421.22 344.866C1423.14 344.668 1424.69 344.49 1425.88 344.334C1427.08 344.163 1427.94 343.908 1428.48 343.567C1429.04 343.212 1429.31 342.665 1429.31 341.926V341.798C1429.31 340.193 1428.84 338.95 1427.89 338.07C1426.94 337.189 1425.56 336.749 1423.77 336.749C1421.89 336.749 1420.39 337.161 1419.28 337.984C1418.19 338.808 1417.45 339.781 1417.06 340.903L1409.86 339.881C1410.43 337.892 1411.37 336.23 1412.67 334.895C1413.98 333.545 1415.58 332.537 1417.47 331.869C1419.36 331.188 1421.45 330.847 1423.73 330.847C1425.31 330.847 1426.88 331.031 1428.44 331.401C1430 331.77 1431.43 332.381 1432.72 333.233C1434.02 334.071 1435.05 335.214 1435.83 336.663C1436.63 338.112 1437.03 339.923 1437.03 342.097V364H1429.61V359.504H1429.36C1428.89 360.413 1428.23 361.266 1427.38 362.061C1426.54 362.842 1425.48 363.474 1424.2 363.957C1422.94 364.426 1421.45 364.661 1419.75 364.661ZM1421.75 358.993C1423.3 358.993 1424.64 358.687 1425.78 358.077C1426.91 357.452 1427.79 356.628 1428.4 355.605C1429.02 354.582 1429.34 353.467 1429.34 352.26V348.403C1429.09 348.602 1428.68 348.787 1428.1 348.957C1427.53 349.128 1426.89 349.277 1426.18 349.405C1425.47 349.533 1424.77 349.646 1424.07 349.746C1423.38 349.845 1422.77 349.93 1422.26 350.001C1421.11 350.158 1420.08 350.413 1419.17 350.768C1418.26 351.124 1417.55 351.621 1417.02 352.26C1416.5 352.885 1416.23 353.695 1416.23 354.689C1416.23 356.109 1416.75 357.182 1417.79 357.906C1418.82 358.631 1420.15 358.993 1421.75 358.993ZM1444.78 364V331.273H1452.26V336.727H1452.6C1453.2 334.838 1454.22 333.382 1455.67 332.359C1457.13 331.322 1458.8 330.804 1460.68 330.804C1461.1 330.804 1461.58 330.825 1462.11 330.868C1462.65 330.896 1463.09 330.946 1463.45 331.017V338.112C1463.12 337.999 1462.6 337.899 1461.89 337.814C1461.2 337.714 1460.52 337.665 1459.87 337.665C1458.46 337.665 1457.2 337.97 1456.08 338.581C1454.97 339.178 1454.09 340.009 1453.46 341.074C1452.82 342.139 1452.5 343.368 1452.5 344.76V364H1444.78ZM1481.71 364.639C1478.43 364.639 1475.6 363.957 1473.21 362.594C1470.84 361.216 1469.01 359.27 1467.74 356.756C1466.46 354.227 1465.82 351.251 1465.82 347.828C1465.82 344.462 1466.46 341.507 1467.74 338.964C1469.03 336.408 1470.83 334.419 1473.15 332.999C1475.46 331.564 1478.18 330.847 1481.31 330.847C1483.33 330.847 1485.23 331.173 1487.02 331.827C1488.82 332.466 1490.41 333.46 1491.79 334.81C1493.18 336.159 1494.28 337.878 1495.07 339.966C1495.87 342.04 1496.27 344.511 1496.27 347.381V349.746H1469.44V344.547H1488.87C1488.86 343.07 1488.54 341.756 1487.91 340.605C1487.29 339.44 1486.42 338.524 1485.29 337.857C1484.19 337.189 1482.89 336.855 1481.42 336.855C1479.84 336.855 1478.45 337.239 1477.26 338.006C1476.07 338.759 1475.14 339.753 1474.47 340.989C1473.82 342.21 1473.48 343.553 1473.47 345.016V349.554C1473.47 351.457 1473.82 353.091 1474.51 354.455C1475.21 355.804 1476.18 356.841 1477.43 357.565C1478.68 358.276 1480.14 358.631 1481.82 358.631C1482.94 358.631 1483.96 358.474 1484.87 358.162C1485.78 357.835 1486.56 357.359 1487.23 356.734C1487.9 356.109 1488.4 355.335 1488.74 354.412L1495.95 355.222C1495.49 357.125 1494.63 358.787 1493.35 360.207C1492.08 361.614 1490.46 362.707 1488.49 363.489C1486.51 364.256 1484.26 364.639 1481.71 364.639Z" fill="#BDCEBD"/>
<defs>
<clipPath id="clip0_1208_236">
<rect width="329" height="329" fill="white" transform="translate(107 59)"/>
</clipPath>
</defs>
</svg>
