<svg width="512" height="512" viewBox="0 0 512 512" fill="none" xmlns="http://www.w3.org/2000/svg">
<g clip-path="url(#clip0_1207_188)">
<path d="M151.25 159.818C156.534 159.818 160.818 155.534 160.818 150.25C160.818 144.966 156.534 140.682 151.25 140.682C145.966 140.682 141.682 144.966 141.682 150.25C141.682 155.534 145.966 159.818 151.25 159.818Z" fill="#8062D6"/>
<path d="M361.75 159.818C367.034 159.818 371.318 155.534 371.318 150.25C371.318 144.966 367.034 140.682 361.75 140.682C356.466 140.682 352.182 144.966 352.182 150.25C352.182 155.534 356.466 159.818 361.75 159.818Z" fill="#8062D6"/>
<path d="M151.25 370.318C156.534 370.318 160.818 366.034 160.818 360.75C160.818 355.466 156.534 351.182 151.25 351.182C145.966 351.182 141.682 355.466 141.682 360.75C141.682 366.034 145.966 370.318 151.25 370.318Z" fill="#8062D6"/>
<path d="M361.75 370.318C367.034 370.318 371.318 366.034 371.318 360.75C371.318 355.466 367.034 351.182 361.75 351.182C356.466 351.182 352.182 355.466 352.182 360.75C352.182 366.034 356.466 370.318 361.75 370.318Z" fill="#8062D6"/>
<path d="M457.432 236.363C462.723 236.363 467 232.077 467 226.796C467 221.514 462.723 217.228 457.432 217.228H409.591V178.955H457.432C462.723 178.955 467 174.669 467 169.387C467 164.106 462.723 159.82 457.432 159.82H409.591V150.25C409.591 123.871 388.13 102.409 361.75 102.409H352.182V54.5679C352.182 49.2865 347.905 45 342.613 45C337.322 45 333.046 49.2865 333.046 54.5679V102.409H294.773V54.5679C294.772 49.2865 290.496 45 285.204 45C279.913 45 275.637 49.2865 275.637 54.5679V102.409H237.364V54.5679C237.363 49.2865 233.087 45 227.796 45C222.504 45 218.228 49.2865 218.228 54.5679V102.409H179.955V54.5679C179.954 49.2865 175.678 45 170.387 45C165.095 45 160.819 49.2865 160.819 54.5679V102.409H151.25C124.871 102.409 103.409 123.87 103.409 150.25V159.818H55.5679C50.2766 159.818 46 164.104 46 169.387C46 174.668 50.2766 178.954 55.5679 178.954H103.409V217.227H55.5679C50.2766 217.228 46 221.514 46 226.796C46 232.077 50.2766 236.363 55.5679 236.363H103.409V274.636H55.5679C50.2766 274.637 46 278.923 46 284.204C46 289.486 50.2766 293.772 55.5679 293.772H103.409V332.045H55.5679C50.2766 332.046 46 336.332 46 341.613C46 346.895 50.2766 351.181 55.5679 351.181H103.409V360.75C103.409 387.129 124.87 408.591 151.25 408.591H160.818V456.432C160.818 461.714 165.094 466 170.386 466C175.677 466 179.954 461.714 179.954 456.432V408.591H218.226V456.432C218.226 461.714 222.503 466 227.794 466C233.085 466 237.362 461.714 237.362 456.432V408.591H275.634V456.432C275.634 461.714 279.911 466 285.202 466C290.493 466 294.77 461.714 294.77 456.432V408.591H333.042V456.432C333.042 461.714 337.319 466 342.61 466C347.901 466 352.178 461.714 352.178 456.432V408.591H361.75C388.129 408.591 409.591 387.13 409.591 360.75V351.182H457.432C462.723 351.182 467 346.896 467 341.614C467 336.333 462.723 332.046 457.432 332.046H400.023C394.732 332.046 390.455 336.333 390.455 341.614V360.75C390.455 376.576 377.576 389.454 361.751 389.454H151.25C135.424 389.454 122.546 376.575 122.546 360.75V150.25C122.546 134.424 135.425 121.546 151.25 121.546H361.75C377.576 121.546 390.454 134.425 390.454 150.25V303.341C390.454 308.622 394.731 312.909 400.022 312.909C405.314 312.909 409.59 308.622 409.59 303.341V293.773H457.431C462.723 293.773 466.999 289.487 466.999 284.205C466.999 278.924 462.723 274.637 457.431 274.637H409.59V236.365H457.432V236.363Z" fill="#8062D6"/>
<path d="M227.795 198.091C211.969 198.091 199.091 210.97 199.091 226.796C199.091 239.254 207.119 249.779 218.228 253.74V332.046H189.523C184.251 332.046 179.964 327.749 179.964 322.478V188.522C179.964 183.25 184.251 178.954 189.532 178.954H246.932C252.223 178.954 256.5 174.668 256.5 169.387C256.5 164.105 252.223 159.819 246.932 159.819H189.532C173.706 159.819 160.828 172.698 160.828 188.523V322.478C160.828 338.304 173.707 351.182 189.522 351.182H227.795C233.086 351.182 237.362 346.896 237.362 341.614V253.74C248.471 249.779 256.499 239.254 256.499 226.796C256.5 210.969 243.621 198.091 227.795 198.091ZM227.795 236.363C222.514 236.363 218.228 232.067 218.228 226.796C218.228 221.523 222.514 217.228 227.795 217.228C233.077 217.228 237.363 221.524 237.363 226.796C237.363 232.068 233.077 236.363 227.795 236.363Z" fill="#8062D6"/>
<path d="M323.468 159.818H285.205C279.913 159.818 275.637 164.104 275.637 169.386V257.26C264.528 261.222 256.5 271.747 256.5 284.204C256.5 300.031 269.379 312.909 285.205 312.909C301.031 312.909 313.909 300.03 313.909 284.204C313.909 271.746 305.881 261.221 294.772 257.26V178.954H323.467C328.748 178.954 333.035 183.251 333.035 188.522V322.477C333.035 327.749 328.748 332.045 323.467 332.045H266.067C260.776 332.045 256.499 336.331 256.499 341.613C256.499 346.894 260.776 351.18 266.067 351.18H323.467C339.293 351.18 352.172 338.301 352.172 322.476V188.522C352.172 172.697 339.293 159.818 323.468 159.818ZM285.205 293.772C279.923 293.772 275.637 289.476 275.637 284.204C275.637 278.932 279.923 274.637 285.205 274.637C290.486 274.637 294.772 278.933 294.772 284.204C294.772 289.477 290.486 293.772 285.205 293.772Z" fill="#8062D6"/>
</g>
<defs>
<clipPath id="clip0_1207_188">
<rect width="421" height="421" fill="white" transform="translate(46 45)"/>
</clipPath>
</defs>
</svg>
